PathFileType	4	(X/Y/Z)	Patient4_TMGait_0pt7_01_left_18.trc.trc
DataRate	CameraRate	NumFrames	NumMarkers	Units	OrigDataRate	OrigDataStartFrame	OrigNumFrames
86.419753086420	86.419753086420	4	33	mm	86.419753086420	18	       141
Frame#	Time	Sacral			L.Shoulder			Chest			R.Shoulder			Neck			R.ASIS			L.ASIS			R.Thigh.Superior			R.Thigh.Lateral			R.Thigh.Inferior			R.Patella			L.Thigh.Superior			L.Thigh.Lateral			L.Thigh.Inferior			L.Patella			L.Shank.Superior			L.Shank.Lateral			L.Shank.Inferior			R.Shank.Superior			R.Shank.Lateral			R.Shank.Inferior			R.Heel			R.Midfoot.Superior			R.Midfoot.Lateral			R.Toe			L.Heel			L.Midfoot.Lateral			L.Midfoot.Superior			L.Toe			L.Elbow			L.Wrist			R.Elbow			R.Wrist			
		X1	Y1	Z1	X2	Y2	Z2	X3	Y3	Z3	X4	Y4	Z4	X5	Y5	Z5	X6	Y6	Z6	X7	Y7	Z7	X8	Y8	Z8	X9	Y9	Z9	X10	Y10	Z10	X11	Y11	Z11	X12	Y12	Z12	X13	Y13	Z13	X14	Y14	Z14	X15	Y15	Z15	X16	Y16	Z16	X17	Y17	Z17	X18	Y18	Z18	X19	Y19	Z19	X20	Y20	Z20	X21	Y21	Z21	X22	Y22	Z22	X23	Y23	Z23	X24	Y24	Z24	X25	Y25	Z25	X26	Y26	Z26	X27	Y27	Z27	X28	Y28	Z28	X29	Y29	Z29	X30	Y30	Z30	X31	Y31	Z31	X32	Y32	Z32	X33	Y33	Z33	

18	20.846714285714	814.225285974487	1009.654303780944	523.123300718780	991.819865635819	1424.846857619011	321.142634161515	1109.776130040998	1347.937624974079	468.521220320952	1055.484819846955	1431.379368120265	648.582788274963	1016.600805308002	1485.964019994038	475.473019569308	1042.605201361097	936.709480095238	628.016887734845	1015.757562732359	950.037801834778	352.605699643070	1036.403102011011	724.976690054151	601.558279794342	930.378356010560	632.502005349668	660.791377051558	990.813643871695	567.803013487242	580.558424925967	972.475280431164	484.786594654231	584.076792749732	1093.533228081465	782.397192519263	385.361580450615	1061.040262627832	653.629328767232	296.697904453655	1164.144505150898	598.994180138269	362.923891897678	1196.682011368780	534.914560782488	357.172312896071	1181.899397368355	460.881927215561	343.776647761685	1121.659558400040	331.651536418927	283.123491734588	1208.192529535814	231.796551396785	338.128725088966	937.280310534860	400.550651378220	588.354957046550	856.693735996951	300.958860239078	645.470843719910	893.491170176316	205.103446146206	579.459206258816	751.140541074788	43.117669637706	540.396436498885	922.551910042346	96.528710720830	581.121274095745	832.583069340808	36.801576028721	616.716025341993	1041.444277512187	41.341910185138	610.850503026624	1126.851778989067	50.258001207661	365.013623702570	1207.154383841295	55.645526150528	291.374628440999	1275.364035080460	133.659927535754	317.708878104443	1411.035482669341	105.336742830163	303.153862381144	824.686019492721	1113.894229705563	233.346984495817	768.208634842094	860.577208144415	254.433836406198	1215.492943834713	1139.520280454514	762.139016477178	1428.269806031320	1213.677427905842	645.734782772222	
19	20.858285714286	814.963970193449	1008.219110014147	521.339978932163	991.604687230977	1423.987267518481	320.259618346958	1109.649148391236	1347.043508038117	467.480166702473	1055.041873881951	1430.101685625136	647.528683252075	1016.034059524682	1484.753851329516	474.706918841473	1043.130628907044	935.260526979094	626.633470281228	1016.926091698072	948.525456199024	351.081516692974	1035.508108670127	723.199855019239	599.981149151302	928.845515720845	631.406516338003	659.547772730964	988.368764146325	566.250695427410	579.027046039015	969.270954124540	483.079637682396	582.515488287485	1093.994659758765	779.974507718977	384.290976550631	1059.717581997661	650.645256986241	296.906966898333	1163.076498862929	595.983585585755	362.086097819036	1194.545392458463	531.834036667130	357.158361100774	1180.072249789404	457.784257225571	344.117756206453	1119.500643178453	327.974271754144	285.579748382574	1207.062295688442	228.908614767541	340.297432203099	933.055314183109	399.007378673481	587.081010925579	851.735043075312	300.475148369247	644.870209581929	886.804311174463	204.169367687928	578.743804975286	742.919914517906	42.918866684785	540.387413580923	914.305633110508	96.409832242700	581.018618739654	824.341344586495	36.719507585302	616.816899655178	1033.213819281437	41.303022437054	610.849702571117	1126.518233494163	48.149010884517	369.712808847704	1205.862577611001	52.818095963577	295.115953354758	1274.616025774217	130.430121428636	320.228795890179	1409.846399589744	101.440871810013	304.308331879434	819.991678596865	1116.476441895178	232.371818429426	759.165236330142	864.154009035410	254.692001879886	1220.704797663397	1142.261816914125	758.679000113693	1426.464813017784	1228.540045998727	639.278074335376	
20	20.869857142857	815.942588116198	1006.604898335057	519.362696407854	991.368818836155	1423.072978941079	319.219081364414	1109.504848709014	1346.205803981743	466.343824159469	1054.428206158488	1428.820229677881	646.367300463745	1015.361854239310	1483.512526526273	473.800711079310	1043.894941313854	933.762260865991	625.110849157310	1018.355264624880	946.967670734763	349.435200015136	1035.164239893846	721.386002104651	598.309165565091	927.906001826119	630.170808275726	658.134631314118	986.645441412606	564.567749107903	577.398277477277	966.739824077512	481.164354112996	580.791529820444	1094.956520105324	777.456819203623	383.015861885108	1058.628565256749	647.513078172060	297.397412942914	1162.369802016613	592.862081377821	361.409845062248	1192.514982993400	528.297386873488	357.413993088657	1177.946532576490	454.156512945727	344.708916059138	1116.172595265239	324.215334151711	288.306502267139	1204.040140881067	225.368260773786	342.734999564401	929.431888084458	397.295316625702	585.659828752006	847.231841418158	299.965534343288	644.166349626345	880.365861860136	203.160584076763	577.959315551403	734.729497306269	42.815921339453	540.391514215125	906.109423460673	96.283302445537	580.883779515041	816.139962136466	36.652952822492	616.891466146593	1025.015286195893	41.181148791311	610.864094550332	1123.010544110099	46.154626279244	374.682044352145	1201.208979142333	49.811215585630	298.907895600472	1271.145100496927	126.309970858119	322.927764143919	1405.650150799059	95.666887167405	305.112641584865	815.874742844293	1118.714792372259	231.381802725052	751.232371927391	867.293407978670	254.685942512068	1225.240729989743	1144.836195452861	755.347040600069	1423.593312490129	1242.302554599170	633.234204706628	
21	20.881428571429	817.143145623877	1004.848523452388	517.213490468034	991.125470187939	1422.121335796498	318.015621224927	1109.356515966083	1345.442446656108	465.110006855222	1053.671707704719	1427.563527425123	645.099433762914	1014.616668310246	1482.271800366604	472.736272930475	1044.880647368883	932.241009060766	623.459133889248	1020.008542811548	945.417417543052	347.691597327202	1035.366650815092	719.563455647015	596.575341091748	927.538385476135	628.821141928862	656.553793209254	985.647493117678	562.773224583206	575.698383112473	964.889773158965	479.048611752825	578.923306666481	1096.366924692756	774.859697768904	381.577137220341	1057.777504771019	644.332352794933	298.079625672830	1161.942982553338	589.673651357354	360.972212025550	1190.574824335151	524.430088571980	357.993384962363	1175.593230414097	450.161897430656	345.546179885295	1112.019520214566	320.473426607895	291.078873200803	1199.495845861901	221.343340194406	345.326812168864	926.405288756272	395.449212197618	584.105358166631	843.163458600091	299.467872534686	643.358914962117	874.174664509076	202.120570557966	577.122007798842	726.574917417646	42.868004623599	540.419224004930	897.978421374221	96.162276222832	580.719913502683	807.987441624309	36.631900339353	616.943002210131	1016.855378197089	40.972132298899	610.896511068190	1116.868529260610	44.275577659738	379.549757084683	1193.868179063171	46.773295532977	302.516332337166	1265.460753108004	121.563477987103	325.727320606582	1399.054387255671	88.497009514161	305.713410225518	812.380146511271	1120.546535098924	230.354319871156	744.441667086908	869.935723956794	254.378264189114	1229.095430442465	1147.173470780153	752.189143378694	1419.796238675123	1254.876751931064	627.649014991127	
